<svg xmlns="http://www.w3.org/2000/svg" viewBox="0 0 1100 190" width="1100" height="190" role="img" aria-label="hf-papers-mcp — HUGGING FACE PAPERS, INSIDE YOUR ASSISTANT">
  <defs>
    <linearGradient id="tr" x1="0" y1="0" x2="1" y2="0">
      <stop offset="0%" stop-color="#2563EB"/><stop offset="55%" stop-color="#7C3AED"/><stop offset="100%" stop-color="#2563EB"/>
    </linearGradient>
    <linearGradient id="fd" x1="0" y1="0" x2="1" y2="0">
      <stop offset="0%" stop-color="#0D1117" stop-opacity="1"/><stop offset="10%" stop-color="#0D1117" stop-opacity="0"/>
      <stop offset="90%" stop-color="#0D1117" stop-opacity="0"/><stop offset="100%" stop-color="#0D1117" stop-opacity="1"/>
    </linearGradient>
    <radialGradient id="halo" cx="50%" cy="30%" r="60%">
      <stop offset="0%" stop-color="#2563EB" stop-opacity="0.17"/>
      <stop offset="100%" stop-color="#2563EB" stop-opacity="0"/>
    </radialGradient>
    <filter id="gl" x="-50%" y="-50%" width="200%" height="200%">
      <feGaussianBlur stdDeviation="3.5" result="b"/><feMerge><feMergeNode in="b"/><feMergeNode in="SourceGraphic"/></feMerge>
    </filter>
    <clipPath id="cp"><rect width="1100" height="190" rx="14"/></clipPath>
  </defs>
  <g clip-path="url(#cp)">
    <rect width="1100" height="190" fill="#0D1117"/>
    <rect width="1100" height="190" fill="url(#halo)"/>
    <g stroke="#2563EB" stroke-opacity="0.06" stroke-width="1"><line x1="0" y1="0" x2="0" y2="190"/><line x1="55" y1="0" x2="55" y2="190"/><line x1="110" y1="0" x2="110" y2="190"/><line x1="165" y1="0" x2="165" y2="190"/><line x1="220" y1="0" x2="220" y2="190"/><line x1="275" y1="0" x2="275" y2="190"/><line x1="330" y1="0" x2="330" y2="190"/><line x1="385" y1="0" x2="385" y2="190"/><line x1="440" y1="0" x2="440" y2="190"/><line x1="495" y1="0" x2="495" y2="190"/><line x1="550" y1="0" x2="550" y2="190"/><line x1="605" y1="0" x2="605" y2="190"/><line x1="660" y1="0" x2="660" y2="190"/><line x1="715" y1="0" x2="715" y2="190"/><line x1="770" y1="0" x2="770" y2="190"/><line x1="825" y1="0" x2="825" y2="190"/><line x1="880" y1="0" x2="880" y2="190"/><line x1="935" y1="0" x2="935" y2="190"/><line x1="990" y1="0" x2="990" y2="190"/><line x1="1045" y1="0" x2="1045" y2="190"/><line x1="1100" y1="0" x2="1100" y2="190"/></g>
    <path d="M 0.0 152.0 Q 4.6 151.8 6.9 151.6 Q 9.2 151.4 11.5 150.6 Q 13.8 149.8 16.1 147.4 Q 18.4 145.1 20.7 140.7 Q 23.0 136.3 25.3 130.9 Q 27.6 125.5 29.9 122.3 Q 32.2 119.1 34.5 120.8 Q 36.8 122.6 39.1 127.4 Q 41.4 132.3 43.7 137.1 Q 46.0 141.9 48.3 145.1 Q 50.6 148.2 52.9 149.9 Q 55.2 151.6 57.5 152.0 Q 59.8 152.4 62.1 150.7 Q 64.4 148.9 66.7 146.4 Q 69.0 143.8 71.3 142.4 Q 73.6 141.0 75.9 140.6 Q 78.2 140.1 80.5 141.1 Q 82.8 142.0 85.1 143.3 Q 87.4 144.7 89.7 146.1 Q 92.1 147.5 94.4 148.3 Q 96.7 149.1 99.0 149.7 Q 101.3 150.3 103.6 150.4 Q 105.9 150.4 108.2 150.5 Q 110.5 150.5 112.8 150.5 Q 115.1 150.6 117.4 150.8 Q 119.7 151.0 122.0 150.8 Q 124.3 150.6 126.6 150.5 Q 128.9 150.4 131.2 150.4 Q 133.5 150.4 135.8 150.5 Q 138.1 150.6 140.4 150.5 Q 142.7 150.4 145.0 150.4 Q 147.3 150.5 149.6 150.4 Q 151.9 150.4 154.2 150.2 Q 156.5 150.0 158.8 150.2 Q 161.1 150.4 163.4 150.3 Q 165.7 150.2 168.0 150.1 Q 170.3 150.0 172.6 150.1 Q 174.9 150.2 177.2 150.2 Q 179.5 150.1 181.8 150.1 Q 184.1 150.1 186.4 150.0 Q 188.7 150.0 191.0 149.8 Q 193.3 149.7 195.6 148.5 Q 197.9 147.4 200.2 144.6 Q 202.5 141.9 204.8 137.5 Q 207.1 133.1 209.4 127.7 Q 211.7 122.3 214.0 120.0 Q 216.3 117.7 218.6 120.1 Q 220.9 122.5 223.2 127.4 Q 225.5 132.3 227.8 137.1 Q 230.1 141.9 232.4 145.0 Q 234.7 148.0 237.0 149.4 Q 239.3 150.8 241.6 150.8 Q 243.9 150.8 246.2 149.0 Q 248.5 147.2 250.8 144.7 Q 253.1 142.3 255.4 141.0 Q 257.7 139.7 260.0 139.5 Q 262.3 139.3 264.6 140.2 Q 266.9 141.1 269.2 142.8 Q 271.5 144.5 273.8 145.7 Q 276.2 147.0 278.5 148.0 Q 280.8 149.0 283.1 149.4 Q 285.4 149.8 287.7 150.1 Q 290.0 150.5 292.3 150.5 Q 294.6 150.5 296.9 150.5 Q 299.2 150.5 301.5 150.4 Q 303.8 150.3 306.1 150.3 Q 308.4 150.3 310.7 150.6 Q 313.0 150.8 315.3 150.8 Q 317.6 150.8 319.9 150.7 Q 322.2 150.6 324.5 150.8 Q 326.8 151.1 329.1 151.0 Q 331.4 150.9 333.7 150.9 Q 336.0 150.9 338.3 150.7 Q 340.6 150.6 342.9 150.7 Q 345.2 150.8 347.5 150.9 Q 349.8 151.1 352.1 151.1 Q 354.4 151.1 356.7 151.1 Q 359.0 151.2 361.3 151.0 Q 363.6 150.9 365.9 151.1 Q 368.2 151.3 370.5 151.2 Q 372.8 151.2 375.1 150.8 Q 377.4 150.4 379.7 149.3 Q 382.0 148.2 384.3 145.2 Q 386.6 142.3 388.9 137.5 Q 391.2 132.7 393.5 127.6 Q 395.8 122.6 398.1 121.1 Q 400.4 119.6 402.7 122.5 Q 405.0 125.3 407.3 130.7 Q 409.6 136.1 411.9 140.6 Q 414.2 145.1 416.5 147.6 Q 418.8 150.1 421.1 151.6 Q 423.4 153.1 425.7 152.7 Q 428.0 152.3 430.3 150.3 Q 432.6 148.3 434.9 146.0 Q 437.2 143.7 439.5 142.7 Q 441.8 141.8 444.1 141.7 Q 446.4 141.7 448.7 143.0 Q 451.0 144.3 453.3 145.9 Q 455.6 147.4 457.9 148.6 Q 460.3 149.7 462.6 150.7 Q 464.9 151.6 467.2 151.9 Q 469.5 152.2 471.8 152.2 Q 474.1 152.2 476.4 152.5 Q 478.7 152.9 481.0 152.9 Q 483.3 153.0 485.6 152.9 Q 487.9 152.9 490.2 152.9 Q 492.5 152.9 494.8 153.0 Q 497.1 153.0 499.4 153.1 Q 501.7 153.1 504.0 153.0 Q 506.3 153.0 508.6 153.0 Q 510.9 153.1 513.2 153.3 Q 515.5 153.4 517.8 153.4 Q 520.1 153.3 522.4 153.3 Q 524.7 153.3 527.0 153.4 Q 529.3 153.6 531.6 153.5 Q 533.9 153.4 536.2 153.5 Q 538.5 153.6 540.8 153.5 Q 543.1 153.3 545.4 153.4 Q 547.7 153.5 550.0 153.5 Q 552.3 153.5 554.6 153.5 Q 556.9 153.5 559.2 153.1 Q 561.5 152.6 563.8 151.4 Q 566.1 150.1 568.4 146.7 Q 570.7 143.3 573.0 138.0 Q 575.3 132.8 577.6 128.4 Q 579.9 124.1 582.2 123.0 Q 584.5 121.9 586.8 125.8 Q 589.1 129.6 591.4 134.7 Q 593.7 139.8 596.0 144.1 Q 598.3 148.3 600.6 150.5 Q 602.9 152.7 605.2 153.9 Q 607.5 155.1 609.8 154.6 Q 612.1 154.1 614.4 151.6 Q 616.7 149.0 619.0 146.8 Q 621.3 144.7 623.6 143.9 Q 625.9 143.1 628.2 143.4 Q 630.5 143.7 632.8 144.9 Q 635.1 146.0 637.4 147.6 Q 639.7 149.2 642.1 150.2 Q 644.4 151.2 646.7 152.1 Q 649.0 153.0 651.3 153.3 Q 653.6 153.6 655.9 153.8 Q 658.2 154.0 660.5 154.0 Q 662.8 154.0 665.1 154.1 Q 667.4 154.1 669.7 153.9 Q 672.0 153.6 674.3 153.7 Q 676.6 153.9 678.9 153.8 Q 681.2 153.6 683.5 153.7 Q 685.8 153.8 688.1 153.9 Q 690.4 153.9 692.7 153.9 Q 695.0 153.8 697.3 153.8 Q 699.6 153.8 701.9 153.8 Q 704.2 153.7 706.5 153.7 Q 708.8 153.7 711.1 153.7 Q 713.4 153.7 715.7 153.8 Q 718.0 153.8 720.3 153.8 Q 722.6 153.7 724.9 153.4 Q 727.2 153.2 729.5 153.4 Q 731.8 153.6 734.1 153.6 Q 736.4 153.6 738.7 153.3 Q 741.0 153.0 743.3 152.3 Q 745.6 151.7 747.9 150.2 Q 750.2 148.8 752.5 144.9 Q 754.8 141.1 757.1 135.8 Q 759.4 130.6 761.7 126.5 Q 764.0 122.4 766.3 122.1 Q 768.6 121.8 770.9 126.0 Q 773.2 130.2 775.5 135.4 Q 777.8 140.7 780.1 144.5 Q 782.4 148.3 784.7 150.2 Q 787.0 152.2 789.3 153.2 Q 791.6 154.1 793.9 153.1 Q 796.2 152.0 798.5 149.7 Q 800.8 147.3 803.1 145.3 Q 805.4 143.4 807.7 142.3 Q 810.0 141.3 812.3 141.9 Q 814.6 142.5 816.9 143.7 Q 819.2 144.9 821.5 146.4 Q 823.8 147.9 826.2 149.0 Q 828.5 150.2 830.8 150.8 Q 833.1 151.4 835.4 151.6 Q 837.7 151.7 840.0 151.9 Q 842.3 152.0 844.6 152.0 Q 846.9 152.0 849.2 152.0 Q 851.5 151.9 853.8 151.8 Q 856.1 151.6 858.4 151.6 Q 860.7 151.7 863.0 151.7 Q 865.3 151.7 867.6 151.7 Q 869.9 151.8 872.2 151.8 Q 874.5 151.9 876.8 151.6 Q 879.1 151.3 881.4 151.3 Q 883.7 151.3 886.0 151.4 Q 888.3 151.4 890.6 151.3 Q 892.9 151.2 895.2 151.2 Q 897.5 151.1 899.8 151.1 Q 902.1 151.1 904.4 151.0 Q 906.7 151.0 909.0 151.1 Q 911.3 151.2 913.6 151.0 Q 915.9 150.7 918.2 151.0 Q 920.5 151.2 922.8 150.8 Q 925.1 150.4 927.4 149.7 Q 929.7 149.0 932.0 147.0 Q 934.3 144.9 936.6 140.8 Q 938.9 136.6 941.2 131.3 Q 943.5 126.0 945.8 122.6 Q 948.1 119.2 950.4 120.0 Q 952.7 120.8 955.0 125.1 Q 957.3 129.4 959.6 134.7 Q 961.9 140.0 964.2 143.3 Q 966.5 146.6 968.8 148.4 Q 971.1 150.2 973.4 151.1 Q 975.7 152.0 978.0 150.7 Q 980.3 149.4 982.6 146.7 Q 984.9 144.0 987.2 142.2 Q 989.5 140.4 991.8 139.9 Q 994.1 139.4 996.4 140.0 Q 998.7 140.6 1001.0 142.0 Q 1003.3 143.5 1005.6 145.0 Q 1007.9 146.5 1010.3 147.4 Q 1012.6 148.3 1014.9 149.0 Q 1017.2 149.6 1019.5 149.9 Q 1021.8 150.2 1024.1 150.1 Q 1026.4 150.0 1028.7 150.0 Q 1031.0 150.1 1033.3 150.1 Q 1035.6 150.0 1037.9 150.1 Q 1040.2 150.3 1042.5 150.2 Q 1044.8 150.2 1047.1 150.2 Q 1049.4 150.3 1051.7 150.2 Q 1054.0 150.2 1056.3 150.1 Q 1058.6 150.0 1060.9 150.1 Q 1063.2 150.2 1065.5 150.1 Q 1067.8 150.0 1070.1 150.0 Q 1072.4 150.0 1074.7 149.8 Q 1077.0 149.7 1079.3 150.0 Q 1081.6 150.4 1083.9 150.1 Q 1086.2 149.9 1088.5 150.0 Q 1090.8 150.1 1093.1 150.1 Q 1095.4 150.1 1097.7 150.3 T 1100.0 150.4" fill="none" stroke="#2563EB" stroke-opacity="0.20" stroke-width="1.8" stroke-linecap="round"/>
    <path d="M 0.0 152.0 Q 4.6 151.8 6.9 151.6 Q 9.2 151.4 11.5 150.6 Q 13.8 149.8 16.1 147.4 Q 18.4 145.1 20.7 140.7 Q 23.0 136.3 25.3 130.9 Q 27.6 125.5 29.9 122.3 Q 32.2 119.1 34.5 120.8 Q 36.8 122.6 39.1 127.4 Q 41.4 132.3 43.7 137.1 Q 46.0 141.9 48.3 145.1 Q 50.6 148.2 52.9 149.9 Q 55.2 151.6 57.5 152.0 Q 59.8 152.4 62.1 150.7 Q 64.4 148.9 66.7 146.4 Q 69.0 143.8 71.3 142.4 Q 73.6 141.0 75.9 140.6 Q 78.2 140.1 80.5 141.1 Q 82.8 142.0 85.1 143.3 Q 87.4 144.7 89.7 146.1 Q 92.1 147.5 94.4 148.3 Q 96.7 149.1 99.0 149.7 Q 101.3 150.3 103.6 150.4 Q 105.9 150.4 108.2 150.5 Q 110.5 150.5 112.8 150.5 Q 115.1 150.6 117.4 150.8 Q 119.7 151.0 122.0 150.8 Q 124.3 150.6 126.6 150.5 Q 128.9 150.4 131.2 150.4 Q 133.5 150.4 135.8 150.5 Q 138.1 150.6 140.4 150.5 Q 142.7 150.4 145.0 150.4 Q 147.3 150.5 149.6 150.4 Q 151.9 150.4 154.2 150.2 Q 156.5 150.0 158.8 150.2 Q 161.1 150.4 163.4 150.3 Q 165.7 150.2 168.0 150.1 Q 170.3 150.0 172.6 150.1 Q 174.9 150.2 177.2 150.2 Q 179.5 150.1 181.8 150.1 Q 184.1 150.1 186.4 150.0 Q 188.7 150.0 191.0 149.8 Q 193.3 149.7 195.6 148.5 Q 197.9 147.4 200.2 144.6 Q 202.5 141.9 204.8 137.5 Q 207.1 133.1 209.4 127.7 Q 211.7 122.3 214.0 120.0 Q 216.3 117.7 218.6 120.1 Q 220.9 122.5 223.2 127.4 Q 225.5 132.3 227.8 137.1 Q 230.1 141.9 232.4 145.0 Q 234.7 148.0 237.0 149.4 Q 239.3 150.8 241.6 150.8 Q 243.9 150.8 246.2 149.0 Q 248.5 147.2 250.8 144.7 Q 253.1 142.3 255.4 141.0 Q 257.7 139.7 260.0 139.5 Q 262.3 139.3 264.6 140.2 Q 266.9 141.1 269.2 142.8 Q 271.5 144.5 273.8 145.7 Q 276.2 147.0 278.5 148.0 Q 280.8 149.0 283.1 149.4 Q 285.4 149.8 287.7 150.1 Q 290.0 150.5 292.3 150.5 Q 294.6 150.5 296.9 150.5 Q 299.2 150.5 301.5 150.4 Q 303.8 150.3 306.1 150.3 Q 308.4 150.3 310.7 150.6 Q 313.0 150.8 315.3 150.8 Q 317.6 150.8 319.9 150.7 Q 322.2 150.6 324.5 150.8 Q 326.8 151.1 329.1 151.0 Q 331.4 150.9 333.7 150.9 Q 336.0 150.9 338.3 150.7 Q 340.6 150.6 342.9 150.7 Q 345.2 150.8 347.5 150.9 Q 349.8 151.1 352.1 151.1 Q 354.4 151.1 356.7 151.1 Q 359.0 151.2 361.3 151.0 Q 363.6 150.9 365.9 151.1 Q 368.2 151.3 370.5 151.2 Q 372.8 151.2 375.1 150.8 Q 377.4 150.4 379.7 149.3 Q 382.0 148.2 384.3 145.2 Q 386.6 142.3 388.9 137.5 Q 391.2 132.7 393.5 127.6 Q 395.8 122.6 398.1 121.1 Q 400.4 119.6 402.7 122.5 Q 405.0 125.3 407.3 130.7 Q 409.6 136.1 411.9 140.6 Q 414.2 145.1 416.5 147.6 Q 418.8 150.1 421.1 151.6 Q 423.4 153.1 425.7 152.7 Q 428.0 152.3 430.3 150.3 Q 432.6 148.3 434.9 146.0 Q 437.2 143.7 439.5 142.7 Q 441.8 141.8 444.1 141.7 Q 446.4 141.7 448.7 143.0 Q 451.0 144.3 453.3 145.9 Q 455.6 147.4 457.9 148.6 Q 460.3 149.7 462.6 150.7 Q 464.9 151.6 467.2 151.9 Q 469.5 152.2 471.8 152.2 Q 474.1 152.2 476.4 152.5 Q 478.7 152.9 481.0 152.9 Q 483.3 153.0 485.6 152.9 Q 487.9 152.9 490.2 152.9 Q 492.5 152.9 494.8 153.0 Q 497.1 153.0 499.4 153.1 Q 501.7 153.1 504.0 153.0 Q 506.3 153.0 508.6 153.0 Q 510.9 153.1 513.2 153.3 Q 515.5 153.4 517.8 153.4 Q 520.1 153.3 522.4 153.3 Q 524.7 153.3 527.0 153.4 Q 529.3 153.6 531.6 153.5 Q 533.9 153.4 536.2 153.5 Q 538.5 153.6 540.8 153.5 Q 543.1 153.3 545.4 153.4 Q 547.7 153.5 550.0 153.5 Q 552.3 153.5 554.6 153.5 Q 556.9 153.5 559.2 153.1 Q 561.5 152.6 563.8 151.4 Q 566.1 150.1 568.4 146.7 Q 570.7 143.3 573.0 138.0 Q 575.3 132.8 577.6 128.4 Q 579.9 124.1 582.2 123.0 Q 584.5 121.9 586.8 125.8 Q 589.1 129.6 591.4 134.7 Q 593.7 139.8 596.0 144.1 Q 598.3 148.3 600.6 150.5 Q 602.9 152.7 605.2 153.9 Q 607.5 155.1 609.8 154.6 Q 612.1 154.1 614.4 151.6 Q 616.7 149.0 619.0 146.8 Q 621.3 144.7 623.6 143.9 Q 625.9 143.1 628.2 143.4 Q 630.5 143.7 632.8 144.9 Q 635.1 146.0 637.4 147.6 Q 639.7 149.2 642.1 150.2 Q 644.4 151.2 646.7 152.1 Q 649.0 153.0 651.3 153.3 Q 653.6 153.6 655.9 153.8 Q 658.2 154.0 660.5 154.0 Q 662.8 154.0 665.1 154.1 Q 667.4 154.1 669.7 153.9 Q 672.0 153.6 674.3 153.7 Q 676.6 153.9 678.9 153.8 Q 681.2 153.6 683.5 153.7 Q 685.8 153.8 688.1 153.9 Q 690.4 153.9 692.7 153.9 Q 695.0 153.8 697.3 153.8 Q 699.6 153.8 701.9 153.8 Q 704.2 153.7 706.5 153.7 Q 708.8 153.7 711.1 153.7 Q 713.4 153.7 715.7 153.8 Q 718.0 153.8 720.3 153.8 Q 722.6 153.7 724.9 153.4 Q 727.2 153.2 729.5 153.4 Q 731.8 153.6 734.1 153.6 Q 736.4 153.6 738.7 153.3 Q 741.0 153.0 743.3 152.3 Q 745.6 151.7 747.9 150.2 Q 750.2 148.8 752.5 144.9 Q 754.8 141.1 757.1 135.8 Q 759.4 130.6 761.7 126.5 Q 764.0 122.4 766.3 122.1 Q 768.6 121.8 770.9 126.0 Q 773.2 130.2 775.5 135.4 Q 777.8 140.7 780.1 144.5 Q 782.4 148.3 784.7 150.2 Q 787.0 152.2 789.3 153.2 Q 791.6 154.1 793.9 153.1 Q 796.2 152.0 798.5 149.7 Q 800.8 147.3 803.1 145.3 Q 805.4 143.4 807.7 142.3 Q 810.0 141.3 812.3 141.9 Q 814.6 142.5 816.9 143.7 Q 819.2 144.9 821.5 146.4 Q 823.8 147.9 826.2 149.0 Q 828.5 150.2 830.8 150.8 Q 833.1 151.4 835.4 151.6 Q 837.7 151.7 840.0 151.9 Q 842.3 152.0 844.6 152.0 Q 846.9 152.0 849.2 152.0 Q 851.5 151.9 853.8 151.8 Q 856.1 151.6 858.4 151.6 Q 860.7 151.7 863.0 151.7 Q 865.3 151.7 867.6 151.7 Q 869.9 151.8 872.2 151.8 Q 874.5 151.9 876.8 151.6 Q 879.1 151.3 881.4 151.3 Q 883.7 151.3 886.0 151.4 Q 888.3 151.4 890.6 151.3 Q 892.9 151.2 895.2 151.2 Q 897.5 151.1 899.8 151.1 Q 902.1 151.1 904.4 151.0 Q 906.7 151.0 909.0 151.1 Q 911.3 151.2 913.6 151.0 Q 915.9 150.7 918.2 151.0 Q 920.5 151.2 922.8 150.8 Q 925.1 150.4 927.4 149.7 Q 929.7 149.0 932.0 147.0 Q 934.3 144.9 936.6 140.8 Q 938.9 136.6 941.2 131.3 Q 943.5 126.0 945.8 122.6 Q 948.1 119.2 950.4 120.0 Q 952.7 120.8 955.0 125.1 Q 957.3 129.4 959.6 134.7 Q 961.9 140.0 964.2 143.3 Q 966.5 146.6 968.8 148.4 Q 971.1 150.2 973.4 151.1 Q 975.7 152.0 978.0 150.7 Q 980.3 149.4 982.6 146.7 Q 984.9 144.0 987.2 142.2 Q 989.5 140.4 991.8 139.9 Q 994.1 139.4 996.4 140.0 Q 998.7 140.6 1001.0 142.0 Q 1003.3 143.5 1005.6 145.0 Q 1007.9 146.5 1010.3 147.4 Q 1012.6 148.3 1014.9 149.0 Q 1017.2 149.6 1019.5 149.9 Q 1021.8 150.2 1024.1 150.1 Q 1026.4 150.0 1028.7 150.0 Q 1031.0 150.1 1033.3 150.1 Q 1035.6 150.0 1037.9 150.1 Q 1040.2 150.3 1042.5 150.2 Q 1044.8 150.2 1047.1 150.2 Q 1049.4 150.3 1051.7 150.2 Q 1054.0 150.2 1056.3 150.1 Q 1058.6 150.0 1060.9 150.1 Q 1063.2 150.2 1065.5 150.1 Q 1067.8 150.0 1070.1 150.0 Q 1072.4 150.0 1074.7 149.8 Q 1077.0 149.7 1079.3 150.0 Q 1081.6 150.4 1083.9 150.1 Q 1086.2 149.9 1088.5 150.0 Q 1090.8 150.1 1093.1 150.1 Q 1095.4 150.1 1097.7 150.3 T 1100.0 150.4" fill="none" stroke="url(#tr)" stroke-width="2.4" stroke-linecap="round" filter="url(#gl)"
          stroke-dasharray="300 1353" stroke-dashoffset="1653">
      <animate attributeName="stroke-dashoffset" from="1653" to="0" dur="6s" repeatCount="indefinite"/>
    </path>
    <circle r="4" fill="#7C3AED" filter="url(#gl)">
      <animateMotion dur="4.91s" repeatCount="indefinite" path="M 0.0 152.0 Q 4.6 151.8 6.9 151.6 Q 9.2 151.4 11.5 150.6 Q 13.8 149.8 16.1 147.4 Q 18.4 145.1 20.7 140.7 Q 23.0 136.3 25.3 130.9 Q 27.6 125.5 29.9 122.3 Q 32.2 119.1 34.5 120.8 Q 36.8 122.6 39.1 127.4 Q 41.4 132.3 43.7 137.1 Q 46.0 141.9 48.3 145.1 Q 50.6 148.2 52.9 149.9 Q 55.2 151.6 57.5 152.0 Q 59.8 152.4 62.1 150.7 Q 64.4 148.9 66.7 146.4 Q 69.0 143.8 71.3 142.4 Q 73.6 141.0 75.9 140.6 Q 78.2 140.1 80.5 141.1 Q 82.8 142.0 85.1 143.3 Q 87.4 144.7 89.7 146.1 Q 92.1 147.5 94.4 148.3 Q 96.7 149.1 99.0 149.7 Q 101.3 150.3 103.6 150.4 Q 105.9 150.4 108.2 150.5 Q 110.5 150.5 112.8 150.5 Q 115.1 150.6 117.4 150.8 Q 119.7 151.0 122.0 150.8 Q 124.3 150.6 126.6 150.5 Q 128.9 150.4 131.2 150.4 Q 133.5 150.4 135.8 150.5 Q 138.1 150.6 140.4 150.5 Q 142.7 150.4 145.0 150.4 Q 147.3 150.5 149.6 150.4 Q 151.9 150.4 154.2 150.2 Q 156.5 150.0 158.8 150.2 Q 161.1 150.4 163.4 150.3 Q 165.7 150.2 168.0 150.1 Q 170.3 150.0 172.6 150.1 Q 174.9 150.2 177.2 150.2 Q 179.5 150.1 181.8 150.1 Q 184.1 150.1 186.4 150.0 Q 188.7 150.0 191.0 149.8 Q 193.3 149.7 195.6 148.5 Q 197.9 147.4 200.2 144.6 Q 202.5 141.9 204.8 137.5 Q 207.1 133.1 209.4 127.7 Q 211.7 122.3 214.0 120.0 Q 216.3 117.7 218.6 120.1 Q 220.9 122.5 223.2 127.4 Q 225.5 132.3 227.8 137.1 Q 230.1 141.9 232.4 145.0 Q 234.7 148.0 237.0 149.4 Q 239.3 150.8 241.6 150.8 Q 243.9 150.8 246.2 149.0 Q 248.5 147.2 250.8 144.7 Q 253.1 142.3 255.4 141.0 Q 257.7 139.7 260.0 139.5 Q 262.3 139.3 264.6 140.2 Q 266.9 141.1 269.2 142.8 Q 271.5 144.5 273.8 145.7 Q 276.2 147.0 278.5 148.0 Q 280.8 149.0 283.1 149.4 Q 285.4 149.8 287.7 150.1 Q 290.0 150.5 292.3 150.5 Q 294.6 150.5 296.9 150.5 Q 299.2 150.5 301.5 150.4 Q 303.8 150.3 306.1 150.3 Q 308.4 150.3 310.7 150.6 Q 313.0 150.8 315.3 150.8 Q 317.6 150.8 319.9 150.7 Q 322.2 150.6 324.5 150.8 Q 326.8 151.1 329.1 151.0 Q 331.4 150.9 333.7 150.9 Q 336.0 150.9 338.3 150.7 Q 340.6 150.6 342.9 150.7 Q 345.2 150.8 347.5 150.9 Q 349.8 151.1 352.1 151.1 Q 354.4 151.1 356.7 151.1 Q 359.0 151.2 361.3 151.0 Q 363.6 150.9 365.9 151.1 Q 368.2 151.3 370.5 151.2 Q 372.8 151.2 375.1 150.8 Q 377.4 150.4 379.7 149.3 Q 382.0 148.2 384.3 145.2 Q 386.6 142.3 388.9 137.5 Q 391.2 132.7 393.5 127.6 Q 395.8 122.6 398.1 121.1 Q 400.4 119.6 402.7 122.5 Q 405.0 125.3 407.3 130.7 Q 409.6 136.1 411.9 140.6 Q 414.2 145.1 416.5 147.6 Q 418.8 150.1 421.1 151.6 Q 423.4 153.1 425.7 152.7 Q 428.0 152.3 430.3 150.3 Q 432.6 148.3 434.9 146.0 Q 437.2 143.7 439.5 142.7 Q 441.8 141.8 444.1 141.7 Q 446.4 141.7 448.7 143.0 Q 451.0 144.3 453.3 145.9 Q 455.6 147.4 457.9 148.6 Q 460.3 149.7 462.6 150.7 Q 464.9 151.6 467.2 151.9 Q 469.5 152.2 471.8 152.2 Q 474.1 152.2 476.4 152.5 Q 478.7 152.9 481.0 152.9 Q 483.3 153.0 485.6 152.9 Q 487.9 152.9 490.2 152.9 Q 492.5 152.9 494.8 153.0 Q 497.1 153.0 499.4 153.1 Q 501.7 153.1 504.0 153.0 Q 506.3 153.0 508.6 153.0 Q 510.9 153.1 513.2 153.3 Q 515.5 153.4 517.8 153.4 Q 520.1 153.3 522.4 153.3 Q 524.7 153.3 527.0 153.4 Q 529.3 153.6 531.6 153.5 Q 533.9 153.4 536.2 153.5 Q 538.5 153.6 540.8 153.5 Q 543.1 153.3 545.4 153.4 Q 547.7 153.5 550.0 153.5 Q 552.3 153.5 554.6 153.5 Q 556.9 153.5 559.2 153.1 Q 561.5 152.6 563.8 151.4 Q 566.1 150.1 568.4 146.7 Q 570.7 143.3 573.0 138.0 Q 575.3 132.8 577.6 128.4 Q 579.9 124.1 582.2 123.0 Q 584.5 121.9 586.8 125.8 Q 589.1 129.6 591.4 134.7 Q 593.7 139.8 596.0 144.1 Q 598.3 148.3 600.6 150.5 Q 602.9 152.7 605.2 153.9 Q 607.5 155.1 609.8 154.6 Q 612.1 154.1 614.4 151.6 Q 616.7 149.0 619.0 146.8 Q 621.3 144.7 623.6 143.9 Q 625.9 143.1 628.2 143.4 Q 630.5 143.7 632.8 144.9 Q 635.1 146.0 637.4 147.6 Q 639.7 149.2 642.1 150.2 Q 644.4 151.2 646.7 152.1 Q 649.0 153.0 651.3 153.3 Q 653.6 153.6 655.9 153.8 Q 658.2 154.0 660.5 154.0 Q 662.8 154.0 665.1 154.1 Q 667.4 154.1 669.7 153.9 Q 672.0 153.6 674.3 153.7 Q 676.6 153.9 678.9 153.8 Q 681.2 153.6 683.5 153.7 Q 685.8 153.8 688.1 153.9 Q 690.4 153.9 692.7 153.9 Q 695.0 153.8 697.3 153.8 Q 699.6 153.8 701.9 153.8 Q 704.2 153.7 706.5 153.7 Q 708.8 153.7 711.1 153.7 Q 713.4 153.7 715.7 153.8 Q 718.0 153.8 720.3 153.8 Q 722.6 153.7 724.9 153.4 Q 727.2 153.2 729.5 153.4 Q 731.8 153.6 734.1 153.6 Q 736.4 153.6 738.7 153.3 Q 741.0 153.0 743.3 152.3 Q 745.6 151.7 747.9 150.2 Q 750.2 148.8 752.5 144.9 Q 754.8 141.1 757.1 135.8 Q 759.4 130.6 761.7 126.5 Q 764.0 122.4 766.3 122.1 Q 768.6 121.8 770.9 126.0 Q 773.2 130.2 775.5 135.4 Q 777.8 140.7 780.1 144.5 Q 782.4 148.3 784.7 150.2 Q 787.0 152.2 789.3 153.2 Q 791.6 154.1 793.9 153.1 Q 796.2 152.0 798.5 149.7 Q 800.8 147.3 803.1 145.3 Q 805.4 143.4 807.7 142.3 Q 810.0 141.3 812.3 141.9 Q 814.6 142.5 816.9 143.7 Q 819.2 144.9 821.5 146.4 Q 823.8 147.9 826.2 149.0 Q 828.5 150.2 830.8 150.8 Q 833.1 151.4 835.4 151.6 Q 837.7 151.7 840.0 151.9 Q 842.3 152.0 844.6 152.0 Q 846.9 152.0 849.2 152.0 Q 851.5 151.9 853.8 151.8 Q 856.1 151.6 858.4 151.6 Q 860.7 151.7 863.0 151.7 Q 865.3 151.7 867.6 151.7 Q 869.9 151.8 872.2 151.8 Q 874.5 151.9 876.8 151.6 Q 879.1 151.3 881.4 151.3 Q 883.7 151.3 886.0 151.4 Q 888.3 151.4 890.6 151.3 Q 892.9 151.2 895.2 151.2 Q 897.5 151.1 899.8 151.1 Q 902.1 151.1 904.4 151.0 Q 906.7 151.0 909.0 151.1 Q 911.3 151.2 913.6 151.0 Q 915.9 150.7 918.2 151.0 Q 920.5 151.2 922.8 150.8 Q 925.1 150.4 927.4 149.7 Q 929.7 149.0 932.0 147.0 Q 934.3 144.9 936.6 140.8 Q 938.9 136.6 941.2 131.3 Q 943.5 126.0 945.8 122.6 Q 948.1 119.2 950.4 120.0 Q 952.7 120.8 955.0 125.1 Q 957.3 129.4 959.6 134.7 Q 961.9 140.0 964.2 143.3 Q 966.5 146.6 968.8 148.4 Q 971.1 150.2 973.4 151.1 Q 975.7 152.0 978.0 150.7 Q 980.3 149.4 982.6 146.7 Q 984.9 144.0 987.2 142.2 Q 989.5 140.4 991.8 139.9 Q 994.1 139.4 996.4 140.0 Q 998.7 140.6 1001.0 142.0 Q 1003.3 143.5 1005.6 145.0 Q 1007.9 146.5 1010.3 147.4 Q 1012.6 148.3 1014.9 149.0 Q 1017.2 149.6 1019.5 149.9 Q 1021.8 150.2 1024.1 150.1 Q 1026.4 150.0 1028.7 150.0 Q 1031.0 150.1 1033.3 150.1 Q 1035.6 150.0 1037.9 150.1 Q 1040.2 150.3 1042.5 150.2 Q 1044.8 150.2 1047.1 150.2 Q 1049.4 150.3 1051.7 150.2 Q 1054.0 150.2 1056.3 150.1 Q 1058.6 150.0 1060.9 150.1 Q 1063.2 150.2 1065.5 150.1 Q 1067.8 150.0 1070.1 150.0 Q 1072.4 150.0 1074.7 149.8 Q 1077.0 149.7 1079.3 150.0 Q 1081.6 150.4 1083.9 150.1 Q 1086.2 149.9 1088.5 150.0 Q 1090.8 150.1 1093.1 150.1 Q 1095.4 150.1 1097.7 150.3 T 1100.0 150.4"/>
      <animate attributeName="r" values="3;5;3" dur="1s" repeatCount="indefinite"/>
    </circle>
    <rect width="1100" height="190" fill="url(#fd)"/>
    <!-- No fade-in on the text. Anything that snapshots the SVG at t=0 (social
         card previews, link unfurls, some markdown renderers) would capture an
         invisible title. The travelling trace carries the motion instead. -->
    <g transform="translate(406.9,72)" fill="#F8F9FA"><path d="M2.0 0.0V-28.2H7.7V-17.3H7.8Q8.6 -19.3 10.3 -20.3Q11.9 -21.4 14.2 -21.4Q16.5 -21.4 18.2 -20.4Q19.8 -19.4 20.7 -17.5Q21.6 -15.7 21.6 -13.1V0.0H15.9V-12.0Q15.9 -14.2 14.8 -15.4Q13.8 -16.6 11.8 -16.6Q10.6 -16.6 9.7 -16.0Q8.7 -15.4 8.2 -14.4Q7.7 -13.4 7.7 -12.0V0.0Z M27.2 0.0V-16.6H24.4V-20.9H27.2V-22.6Q27.2 -24.7 27.9 -26.0Q28.6 -27.3 30.2 -28.0Q31.7 -28.6 34.1 -28.6Q34.9 -28.6 35.7 -28.5Q36.5 -28.5 37.0 -28.4V-24.6Q36.7 -24.7 36.3 -24.7Q35.9 -24.7 35.6 -24.7Q34.1 -24.7 33.5 -24.1Q32.8 -23.5 32.8 -22.4V-20.9H37.0V-16.6H33.0V0.0Z M41.1 -9.0V-13.9H53.8V-9.0Z M58.6 6.8V-20.9H64.3V-17.3H64.4Q65.0 -18.6 65.9 -19.5Q66.9 -20.4 68.1 -20.9Q69.4 -21.4 70.8 -21.4Q73.5 -21.4 75.4 -20.1Q77.3 -18.8 78.4 -16.3Q79.4 -13.9 79.4 -10.5V-10.5Q79.4 -7.1 78.4 -4.6Q77.3 -2.2 75.4 -0.9Q73.5 0.4 70.9 0.4Q69.4 0.4 68.2 -0.1Q66.9 -0.5 65.9 -1.4Q65.0 -2.3 64.4 -3.6H64.3V6.8ZM69.0 -4.3Q70.4 -4.3 71.4 -5.0Q72.5 -5.8 73.0 -7.2Q73.6 -8.6 73.6 -10.5V-10.5Q73.6 -12.4 73.0 -13.8Q72.4 -15.2 71.4 -15.9Q70.4 -16.6 69.0 -16.6Q67.6 -16.6 66.5 -15.9Q65.5 -15.1 64.9 -13.8Q64.3 -12.4 64.3 -10.5V-10.4Q64.3 -8.6 64.9 -7.2Q65.5 -5.8 66.5 -5.0Q67.6 -4.3 69.0 -4.3Z M89.1 0.3Q87.0 0.3 85.4 -0.5Q83.8 -1.3 82.9 -2.7Q82.0 -4.2 82.0 -6.0V-6.0Q82.0 -7.9 83.0 -9.3Q83.9 -10.7 85.8 -11.4Q87.6 -12.2 90.2 -12.4L98.3 -12.9V-9.4L91.0 -8.9Q89.4 -8.8 88.5 -8.1Q87.7 -7.4 87.7 -6.3V-6.3Q87.7 -5.1 88.6 -4.5Q89.4 -3.8 90.9 -3.8Q92.2 -3.8 93.2 -4.3Q94.2 -4.8 94.8 -5.7Q95.4 -6.6 95.4 -7.6V-14.0Q95.4 -15.4 94.5 -16.2Q93.6 -17.0 91.9 -17.0Q90.3 -17.0 89.4 -16.3Q88.4 -15.7 88.2 -14.7L88.2 -14.5H83.0L83.0 -14.7Q83.2 -16.7 84.3 -18.2Q85.4 -19.7 87.4 -20.5Q89.4 -21.4 92.2 -21.4Q94.9 -21.4 96.9 -20.5Q98.9 -19.6 100.0 -18.0Q101.1 -16.5 101.1 -14.4V0.0H95.4V-3.1H95.2Q94.6 -2.1 93.7 -1.3Q92.8 -0.5 91.6 -0.1Q90.4 0.3 89.1 0.3Z M105.2 6.8V-20.9H110.9V-17.3H111.1Q111.6 -18.6 112.6 -19.5Q113.5 -20.4 114.7 -20.9Q116.0 -21.4 117.5 -21.4Q120.1 -21.4 122.0 -20.1Q123.9 -18.8 125.0 -16.3Q126.0 -13.9 126.0 -10.5V-10.5Q126.0 -7.1 125.0 -4.6Q124.0 -2.2 122.1 -0.9Q120.2 0.4 117.5 0.4Q116.0 0.4 114.8 -0.1Q113.5 -0.5 112.6 -1.4Q111.6 -2.3 111.1 -3.6H110.9V6.8ZM115.6 -4.3Q117.0 -4.3 118.0 -5.0Q119.1 -5.8 119.6 -7.2Q120.2 -8.6 120.2 -10.5V-10.5Q120.2 -12.4 119.6 -13.8Q119.1 -15.2 118.0 -15.9Q117.0 -16.6 115.6 -16.6Q114.2 -16.6 113.1 -15.9Q112.1 -15.1 111.5 -13.8Q110.9 -12.4 110.9 -10.5V-10.4Q110.9 -8.6 111.5 -7.2Q112.1 -5.8 113.1 -5.0Q114.2 -4.3 115.6 -4.3Z M139.0 0.4Q135.8 0.4 133.5 -0.9Q131.2 -2.2 129.9 -4.6Q128.7 -7.1 128.7 -10.4V-10.4Q128.7 -13.8 129.9 -16.2Q131.2 -18.7 133.4 -20.0Q135.7 -21.4 138.8 -21.4Q141.8 -21.4 144.1 -20.1Q146.3 -18.8 147.5 -16.4Q148.7 -14.0 148.7 -10.9V-9.1H131.5V-12.7H146.0L143.3 -9.3V-11.5Q143.3 -13.4 142.8 -14.6Q142.2 -15.9 141.2 -16.5Q140.2 -17.1 138.9 -17.1Q137.5 -17.1 136.5 -16.5Q135.5 -15.8 134.9 -14.6Q134.3 -13.3 134.3 -11.5V-9.3Q134.3 -7.6 134.9 -6.4Q135.5 -5.1 136.6 -4.5Q137.6 -3.8 139.1 -3.8Q140.3 -3.8 141.1 -4.2Q142.0 -4.6 142.5 -5.1Q143.1 -5.7 143.3 -6.3L143.3 -6.4H148.6L148.5 -6.2Q148.3 -5.0 147.6 -3.9Q146.9 -2.7 145.7 -1.7Q144.6 -0.7 142.9 -0.2Q141.2 0.4 139.0 0.4Z M152.2 0.0V-20.9H157.9V-17.3H158.0Q158.5 -19.2 159.7 -20.3Q160.9 -21.4 162.7 -21.4Q163.2 -21.4 163.7 -21.3Q164.1 -21.2 164.4 -21.1V-16.1Q164.0 -16.3 163.5 -16.4Q163.0 -16.4 162.3 -16.4Q160.9 -16.4 159.9 -15.9Q158.9 -15.4 158.4 -14.3Q157.9 -13.2 157.9 -11.7V0.0Z M175.8 0.4Q172.9 0.4 170.9 -0.4Q168.9 -1.2 167.7 -2.7Q166.6 -4.2 166.4 -6.2L166.3 -6.4H171.9L171.9 -6.2Q172.2 -5.0 173.2 -4.3Q174.1 -3.6 175.8 -3.6Q176.9 -3.6 177.7 -3.9Q178.5 -4.1 178.9 -4.6Q179.3 -5.1 179.3 -5.8V-5.8Q179.3 -6.7 178.7 -7.2Q178.1 -7.7 176.5 -8.0L173.0 -8.8Q171.0 -9.2 169.6 -10.0Q168.2 -10.8 167.5 -12.0Q166.9 -13.2 166.9 -14.8V-14.8Q166.9 -16.8 167.9 -18.3Q169.0 -19.7 171.0 -20.6Q173.0 -21.4 175.6 -21.4Q178.4 -21.4 180.4 -20.5Q182.3 -19.6 183.3 -18.1Q184.4 -16.6 184.4 -14.7L184.4 -14.6H179.2L179.2 -14.7Q179.0 -15.8 178.1 -16.6Q177.2 -17.3 175.6 -17.3Q174.7 -17.3 173.9 -17.1Q173.2 -16.8 172.8 -16.3Q172.4 -15.8 172.4 -15.1V-15.1Q172.4 -14.6 172.7 -14.1Q173.0 -13.7 173.6 -13.4Q174.2 -13.1 175.3 -12.9L178.8 -12.1Q181.0 -11.7 182.4 -10.9Q183.7 -10.1 184.4 -9.0Q185.0 -7.9 185.0 -6.4V-6.4Q185.0 -4.3 183.8 -2.8Q182.7 -1.3 180.6 -0.4Q178.5 0.4 175.8 0.4Z M188.9 -9.0V-13.9H201.6V-9.0Z M206.4 0.0V-20.9H212.1V-17.4H212.3Q212.9 -19.2 214.5 -20.3Q216.0 -21.4 218.1 -21.4Q219.6 -21.4 220.8 -20.9Q221.9 -20.4 222.7 -19.4Q223.5 -18.4 223.9 -17.0H224.0Q224.5 -18.4 225.4 -19.3Q226.4 -20.3 227.7 -20.8Q229.0 -21.4 230.5 -21.4Q232.6 -21.4 234.1 -20.5Q235.6 -19.6 236.5 -18.0Q237.4 -16.4 237.4 -14.3V0.0H231.7V-12.9Q231.7 -14.1 231.3 -14.9Q230.9 -15.8 230.1 -16.2Q229.3 -16.6 228.2 -16.6Q227.2 -16.6 226.3 -16.1Q225.5 -15.7 225.1 -14.8Q224.6 -13.9 224.6 -12.7V0.0H219.2V-13.1Q219.2 -14.2 218.7 -15.0Q218.3 -15.8 217.6 -16.2Q216.8 -16.6 215.8 -16.6Q214.7 -16.6 213.9 -16.1Q213.1 -15.6 212.6 -14.7Q212.1 -13.8 212.1 -12.6V0.0Z M251.0 0.4Q247.9 0.4 245.5 -0.9Q243.2 -2.2 242.0 -4.7Q240.7 -7.1 240.7 -10.5V-10.5Q240.7 -13.9 242.0 -16.3Q243.2 -18.7 245.5 -20.0Q247.9 -21.4 251.0 -21.4Q253.8 -21.4 255.9 -20.3Q258.0 -19.2 259.2 -17.4Q260.4 -15.6 260.5 -13.3L260.5 -13.2H255.2L255.2 -13.4Q254.9 -14.9 253.9 -15.9Q252.8 -16.9 251.1 -16.9Q249.7 -16.9 248.6 -16.1Q247.6 -15.4 247.1 -13.9Q246.5 -12.5 246.5 -10.5V-10.5Q246.5 -8.4 247.1 -7.0Q247.6 -5.5 248.6 -4.8Q249.7 -4.0 251.1 -4.0Q252.8 -4.0 253.8 -5.0Q254.9 -6.0 255.2 -7.6L255.2 -7.7H260.5L260.5 -7.6Q260.4 -5.3 259.2 -3.5Q258.0 -1.7 255.9 -0.6Q253.8 0.4 251.0 0.4Z M263.8 6.8V-20.9H269.5V-17.3H269.6Q270.2 -18.6 271.1 -19.5Q272.0 -20.4 273.3 -20.9Q274.5 -21.4 276.0 -21.4Q278.7 -21.4 280.6 -20.1Q282.5 -18.8 283.5 -16.3Q284.5 -13.9 284.5 -10.5V-10.5Q284.5 -7.1 283.5 -4.6Q282.5 -2.2 280.6 -0.9Q278.7 0.4 276.1 0.4Q274.6 0.4 273.3 -0.1Q272.1 -0.5 271.1 -1.4Q270.2 -2.3 269.6 -3.6H269.5V6.8ZM274.1 -4.3Q275.5 -4.3 276.6 -5.0Q277.6 -5.8 278.2 -7.2Q278.7 -8.6 278.7 -10.5V-10.5Q278.7 -12.4 278.2 -13.8Q277.6 -15.2 276.6 -15.9Q275.5 -16.6 274.1 -16.6Q272.7 -16.6 271.7 -15.9Q270.6 -15.1 270.0 -13.8Q269.4 -12.4 269.4 -10.5V-10.4Q269.4 -8.6 270.0 -7.2Q270.6 -5.8 271.7 -5.0Q272.7 -4.3 274.1 -4.3Z"/></g>
    <g transform="translate(340.6,100)" fill="#9CA3AF"><path d="M1.2 0.0V-9.5H2.7V-5.5H7.5V-9.5H9.0V0.0H7.5V-4.2H2.7V0.0Z M17.2 0.2Q16.0 0.2 15.2 -0.2Q14.3 -0.7 13.8 -1.4Q13.4 -2.2 13.4 -3.3V-9.5H14.9V-3.4Q14.9 -2.7 15.2 -2.2Q15.4 -1.7 16.0 -1.4Q16.5 -1.1 17.2 -1.1Q18.0 -1.1 18.5 -1.4Q19.0 -1.7 19.3 -2.2Q19.6 -2.7 19.6 -3.4V-9.5H21.1V-3.3Q21.1 -2.2 20.6 -1.4Q20.2 -0.7 19.3 -0.2Q18.4 0.2 17.2 0.2Z M29.5 0.2Q28.4 0.2 27.6 -0.1Q26.8 -0.5 26.2 -1.1Q25.7 -1.8 25.4 -2.7Q25.0 -3.6 25.0 -4.8V-4.8Q25.0 -6.3 25.6 -7.4Q26.1 -8.5 27.1 -9.1Q28.1 -9.7 29.4 -9.7Q30.5 -9.7 31.4 -9.4Q32.2 -9.0 32.8 -8.3Q33.3 -7.6 33.5 -6.7L33.5 -6.6H32.0L32.0 -6.7Q31.7 -7.5 31.1 -8.0Q30.4 -8.4 29.4 -8.4Q28.6 -8.4 27.9 -8.0Q27.3 -7.5 26.9 -6.7Q26.6 -5.9 26.6 -4.8V-4.8Q26.6 -3.9 26.8 -3.2Q27.0 -2.6 27.4 -2.1Q27.7 -1.6 28.3 -1.4Q28.8 -1.1 29.5 -1.1Q30.3 -1.1 30.8 -1.4Q31.4 -1.7 31.7 -2.3Q32.1 -2.8 32.1 -3.5L32.1 -3.7H29.7V-4.9H33.6V-3.8Q33.6 -2.9 33.3 -2.1Q33.0 -1.4 32.5 -0.9Q31.9 -0.3 31.2 -0.1Q30.4 0.2 29.5 0.2Z M41.6 0.2Q40.6 0.2 39.8 -0.1Q38.9 -0.5 38.4 -1.1Q37.8 -1.8 37.5 -2.7Q37.2 -3.6 37.2 -4.8V-4.8Q37.2 -6.3 37.7 -7.4Q38.3 -8.5 39.3 -9.1Q40.2 -9.7 41.6 -9.7Q42.7 -9.7 43.5 -9.4Q44.4 -9.0 44.9 -8.3Q45.5 -7.6 45.6 -6.7L45.6 -6.6H44.1L44.1 -6.7Q43.9 -7.5 43.2 -8.0Q42.5 -8.4 41.6 -8.4Q40.7 -8.4 40.1 -8.0Q39.4 -7.5 39.1 -6.7Q38.7 -5.9 38.7 -4.8V-4.8Q38.7 -3.9 38.9 -3.2Q39.1 -2.6 39.5 -2.1Q39.9 -1.6 40.4 -1.4Q40.9 -1.1 41.6 -1.1Q42.4 -1.1 43.0 -1.4Q43.6 -1.7 43.9 -2.3Q44.2 -2.8 44.2 -3.5L44.2 -3.7H41.8V-4.9H45.7V-3.8Q45.7 -2.9 45.4 -2.1Q45.1 -1.4 44.6 -0.9Q44.0 -0.3 43.3 -0.1Q42.5 0.2 41.6 0.2Z M49.7 0.0V-9.5H51.2V0.0Z M55.6 0.0V-9.5H56.9L62.2 -2.1L61.1 -2.6H61.9V-9.5H63.3V0.0H62.0L56.7 -7.4L57.8 -6.9H57.0V0.0Z M71.7 0.2Q70.7 0.2 69.9 -0.1Q69.1 -0.5 68.5 -1.1Q67.9 -1.8 67.6 -2.7Q67.3 -3.6 67.3 -4.8V-4.8Q67.3 -6.3 67.8 -7.4Q68.4 -8.5 69.4 -9.1Q70.4 -9.7 71.7 -9.7Q72.8 -9.7 73.6 -9.4Q74.5 -9.0 75.0 -8.3Q75.6 -7.6 75.7 -6.7L75.8 -6.6H74.2L74.2 -6.7Q74.0 -7.5 73.3 -8.0Q72.7 -8.4 71.7 -8.4Q70.8 -8.4 70.2 -8.0Q69.5 -7.5 69.2 -6.7Q68.8 -5.9 68.8 -4.8V-4.8Q68.8 -3.9 69.0 -3.2Q69.2 -2.6 69.6 -2.1Q70.0 -1.6 70.5 -1.4Q71.1 -1.1 71.7 -1.1Q72.5 -1.1 73.1 -1.4Q73.7 -1.7 74.0 -2.3Q74.3 -2.8 74.3 -3.5L74.3 -3.7H71.9V-4.9H75.8V-3.8Q75.8 -2.9 75.5 -2.1Q75.2 -1.4 74.7 -0.9Q74.2 -0.3 73.4 -0.1Q72.6 0.2 71.7 0.2Z M85.4 0.0V-9.5H91.4V-8.2H87.0V-5.2H91.0V-4.0H87.0V0.0Z M94.6 0.0 98.0 -9.5H99.2V-7.8H98.7L96.1 0.0ZM96.2 -2.6 96.6 -3.8H101.0L101.4 -2.6ZM101.5 0.0 98.9 -7.8V-9.5H99.6L103.0 0.0Z M110.6 0.2Q109.3 0.2 108.3 -0.4Q107.3 -1.0 106.8 -2.1Q106.3 -3.2 106.3 -4.7V-4.8Q106.3 -6.3 106.8 -7.4Q107.3 -8.5 108.3 -9.1Q109.3 -9.7 110.6 -9.7Q111.6 -9.7 112.5 -9.3Q113.3 -8.9 113.9 -8.2Q114.4 -7.5 114.5 -6.5L114.5 -6.5H113.0L113.0 -6.5Q112.9 -7.1 112.6 -7.5Q112.2 -7.9 111.7 -8.2Q111.2 -8.4 110.6 -8.4Q109.7 -8.4 109.1 -8.0Q108.5 -7.5 108.2 -6.7Q107.8 -5.9 107.8 -4.8V-4.7Q107.8 -3.6 108.2 -2.8Q108.5 -2.0 109.1 -1.5Q109.7 -1.1 110.6 -1.1Q111.2 -1.1 111.7 -1.3Q112.2 -1.5 112.6 -1.9Q112.9 -2.3 113.0 -2.8L113.1 -2.9H114.5L114.5 -2.8Q114.4 -1.9 113.9 -1.2Q113.3 -0.5 112.5 -0.2Q111.7 0.2 110.6 0.2Z M118.4 0.0V-9.5H124.5V-8.2H120.0V-5.5H124.3V-4.2H120.0V-1.3H124.5V0.0Z M135.0 -3.2V-4.5H137.6Q138.5 -4.5 139.0 -5.0Q139.6 -5.5 139.6 -6.4V-6.4Q139.6 -7.3 139.0 -7.8Q138.5 -8.2 137.6 -8.2H135.0V-9.5H137.9Q138.9 -9.5 139.6 -9.1Q140.3 -8.7 140.7 -8.0Q141.1 -7.3 141.1 -6.4V-6.4Q141.1 -5.4 140.7 -4.7Q140.3 -4.0 139.6 -3.6Q138.9 -3.2 137.9 -3.2ZM134.2 0.0V-9.5H135.7V0.0Z M144.2 0.0 147.7 -9.5H148.9V-7.8H148.4L145.8 0.0ZM145.9 -2.6 146.3 -3.8H150.7L151.1 -2.6ZM151.2 0.0 148.5 -7.8V-9.5H149.3L152.7 0.0Z M157.1 -3.2V-4.5H159.7Q160.7 -4.5 161.2 -5.0Q161.7 -5.5 161.7 -6.4V-6.4Q161.7 -7.3 161.2 -7.8Q160.7 -8.2 159.7 -8.2H157.1V-9.5H160.1Q161.0 -9.5 161.7 -9.1Q162.4 -8.7 162.8 -8.0Q163.2 -7.3 163.2 -6.4V-6.4Q163.2 -5.4 162.8 -4.7Q162.4 -4.0 161.7 -3.6Q161.0 -3.2 160.1 -3.2ZM156.4 0.0V-9.5H157.9V0.0Z M167.1 0.0V-9.5H173.2V-8.2H168.6V-5.5H172.9V-4.2H168.6V-1.3H173.2V0.0Z M177.3 0.0V-9.5H181.0Q182.0 -9.5 182.7 -9.2Q183.4 -8.8 183.8 -8.1Q184.2 -7.5 184.2 -6.6V-6.6Q184.2 -5.6 183.7 -4.9Q183.2 -4.2 182.4 -3.9L184.5 0.0H182.8L180.8 -3.6Q180.8 -3.6 180.8 -3.6Q180.8 -3.6 180.7 -3.6H178.8V0.0ZM178.8 -4.9H180.9Q181.7 -4.9 182.2 -5.3Q182.7 -5.7 182.7 -6.6V-6.6Q182.7 -7.4 182.2 -7.8Q181.7 -8.3 180.8 -8.3H178.8Z M191.5 0.2Q190.4 0.2 189.6 -0.1Q188.8 -0.5 188.4 -1.1Q187.9 -1.7 187.8 -2.5L187.8 -2.6H189.3L189.3 -2.5Q189.4 -2.1 189.7 -1.7Q189.9 -1.4 190.4 -1.3Q190.9 -1.1 191.6 -1.1Q192.2 -1.1 192.6 -1.3Q193.1 -1.4 193.4 -1.8Q193.6 -2.1 193.6 -2.6V-2.6Q193.6 -3.1 193.2 -3.5Q192.8 -3.8 191.9 -4.0L190.8 -4.2Q189.9 -4.4 189.2 -4.8Q188.6 -5.2 188.3 -5.7Q188.0 -6.2 188.0 -6.9V-7.0Q188.1 -7.8 188.5 -8.4Q188.9 -9.0 189.7 -9.4Q190.5 -9.7 191.5 -9.7Q192.5 -9.7 193.3 -9.4Q194.0 -9.0 194.5 -8.5Q194.9 -7.9 195.0 -7.1L195.0 -7.0H193.5L193.5 -7.1Q193.4 -7.5 193.2 -7.8Q192.9 -8.1 192.5 -8.3Q192.1 -8.4 191.5 -8.4Q190.9 -8.4 190.5 -8.3Q190.1 -8.1 189.8 -7.8Q189.6 -7.5 189.6 -7.0V-7.0Q189.6 -6.7 189.7 -6.4Q189.9 -6.1 190.3 -5.9Q190.7 -5.7 191.3 -5.6L192.3 -5.4Q193.3 -5.2 193.9 -4.8Q194.6 -4.5 194.9 -4.0Q195.1 -3.4 195.1 -2.7V-2.7Q195.1 -1.8 194.7 -1.2Q194.3 -0.5 193.4 -0.1Q192.6 0.2 191.5 0.2Z M198.6 2.5 199.2 -1.4H200.8L199.7 2.5Z M210.9 0.0V-9.5H212.4V0.0Z M216.8 0.0V-9.5H218.1L223.4 -2.1L222.3 -2.6H223.1V-9.5H224.5V0.0H223.2L217.9 -7.4L219.0 -6.9H218.2V0.0Z M232.1 0.2Q231.0 0.2 230.2 -0.1Q229.4 -0.5 229.0 -1.1Q228.5 -1.7 228.5 -2.5L228.4 -2.6H229.9L229.9 -2.5Q230.0 -2.1 230.3 -1.7Q230.6 -1.4 231.1 -1.3Q231.5 -1.1 232.2 -1.1Q232.8 -1.1 233.2 -1.3Q233.7 -1.4 234.0 -1.8Q234.2 -2.1 234.2 -2.6V-2.6Q234.2 -3.1 233.8 -3.5Q233.4 -3.8 232.5 -4.0L231.4 -4.2Q230.5 -4.4 229.9 -4.8Q229.3 -5.2 229.0 -5.7Q228.7 -6.2 228.7 -6.9V-7.0Q228.7 -7.8 229.1 -8.4Q229.6 -9.0 230.3 -9.4Q231.1 -9.7 232.1 -9.7Q233.1 -9.7 233.9 -9.4Q234.7 -9.0 235.1 -8.5Q235.5 -7.9 235.6 -7.1L235.6 -7.0H234.1L234.1 -7.1Q234.1 -7.5 233.8 -7.8Q233.5 -8.1 233.1 -8.3Q232.7 -8.4 232.1 -8.4Q231.6 -8.4 231.1 -8.3Q230.7 -8.1 230.4 -7.8Q230.2 -7.5 230.2 -7.0V-7.0Q230.2 -6.7 230.4 -6.4Q230.5 -6.1 230.9 -5.9Q231.3 -5.7 231.9 -5.6L232.9 -5.4Q233.9 -5.2 234.6 -4.8Q235.2 -4.5 235.5 -4.0Q235.8 -3.4 235.8 -2.7V-2.7Q235.8 -1.8 235.3 -1.2Q234.9 -0.5 234.1 -0.1Q233.2 0.2 232.1 0.2Z M239.7 0.0V-9.5H241.2V0.0Z M245.5 0.0V-9.5H249.0Q250.4 -9.5 251.4 -9.0Q252.4 -8.4 252.9 -7.3Q253.5 -6.3 253.5 -4.8V-4.8Q253.5 -3.3 252.9 -2.2Q252.4 -1.1 251.4 -0.6Q250.4 0.0 249.0 0.0ZM247.0 -1.3H248.8Q249.8 -1.3 250.5 -1.7Q251.2 -2.1 251.6 -2.9Q251.9 -3.7 251.9 -4.8V-4.8Q251.9 -5.9 251.5 -6.6Q251.2 -7.4 250.5 -7.8Q249.8 -8.2 248.8 -8.2H247.0Z M257.4 0.0V-9.5H263.5V-8.2H258.9V-5.5H263.2V-4.2H258.9V-1.3H263.5V0.0Z M275.8 0.0V-3.9L272.5 -9.5H274.1L276.5 -5.4H276.6L279.0 -9.5H280.7L277.3 -3.9V0.0Z M288.4 0.2Q287.0 0.2 286.0 -0.4Q285.0 -1.0 284.5 -2.1Q283.9 -3.2 283.9 -4.8V-4.8Q283.9 -6.3 284.5 -7.4Q285.0 -8.5 286.0 -9.1Q287.0 -9.7 288.4 -9.7Q289.7 -9.7 290.7 -9.1Q291.7 -8.5 292.3 -7.4Q292.8 -6.3 292.8 -4.8V-4.8Q292.8 -3.2 292.3 -2.1Q291.7 -1.0 290.7 -0.4Q289.7 0.2 288.4 0.2ZM288.4 -1.1Q289.3 -1.1 289.9 -1.6Q290.6 -2.0 290.9 -2.8Q291.3 -3.6 291.3 -4.8V-4.8Q291.3 -5.9 290.9 -6.7Q290.6 -7.5 289.9 -8.0Q289.3 -8.4 288.4 -8.4Q287.5 -8.4 286.8 -8.0Q286.2 -7.5 285.8 -6.7Q285.5 -5.9 285.5 -4.8V-4.8Q285.5 -3.6 285.8 -2.8Q286.2 -2.0 286.8 -1.6Q287.5 -1.1 288.4 -1.1Z M300.6 0.2Q299.4 0.2 298.6 -0.2Q297.7 -0.7 297.2 -1.4Q296.8 -2.2 296.8 -3.3V-9.5H298.3V-3.4Q298.3 -2.7 298.6 -2.2Q298.8 -1.7 299.4 -1.4Q299.9 -1.1 300.6 -1.1Q301.4 -1.1 301.9 -1.4Q302.4 -1.7 302.7 -2.2Q303.0 -2.7 303.0 -3.4V-9.5H304.5V-3.3Q304.5 -2.2 304.0 -1.4Q303.6 -0.7 302.7 -0.2Q301.8 0.2 300.6 0.2Z M308.8 0.0V-9.5H312.6Q313.6 -9.5 314.3 -9.2Q315.0 -8.8 315.4 -8.1Q315.8 -7.5 315.8 -6.6V-6.6Q315.8 -5.6 315.3 -4.9Q314.8 -4.2 313.9 -3.9L316.1 0.0H314.3L312.4 -3.6Q312.4 -3.6 312.4 -3.6Q312.3 -3.6 312.3 -3.6H310.3V0.0ZM310.3 -4.9H312.4Q313.3 -4.9 313.8 -5.3Q314.2 -5.7 314.2 -6.6V-6.6Q314.2 -7.4 313.7 -7.8Q313.3 -8.3 312.4 -8.3H310.3Z M324.7 0.0 328.2 -9.5H329.4V-7.8H328.9L326.3 0.0ZM326.4 -2.6 326.8 -3.8H331.2L331.6 -2.6ZM331.7 0.0 329.0 -7.8V-9.5H329.8L333.2 0.0Z M340.1 0.2Q339.0 0.2 338.2 -0.1Q337.4 -0.5 336.9 -1.1Q336.5 -1.7 336.4 -2.5L336.4 -2.6H337.9L337.9 -2.5Q337.9 -2.1 338.2 -1.7Q338.5 -1.4 339.0 -1.3Q339.5 -1.1 340.1 -1.1Q340.7 -1.1 341.2 -1.3Q341.7 -1.4 341.9 -1.8Q342.2 -2.1 342.2 -2.6V-2.6Q342.2 -3.1 341.8 -3.5Q341.4 -3.8 340.4 -4.0L339.4 -4.2Q338.4 -4.4 337.8 -4.8Q337.2 -5.2 336.9 -5.7Q336.6 -6.2 336.6 -6.9V-7.0Q336.6 -7.8 337.1 -8.4Q337.5 -9.0 338.3 -9.4Q339.1 -9.7 340.1 -9.7Q341.1 -9.7 341.9 -9.4Q342.6 -9.0 343.1 -8.5Q343.5 -7.9 343.5 -7.1L343.6 -7.0H342.1L342.1 -7.1Q342.0 -7.5 341.8 -7.8Q341.5 -8.1 341.1 -8.3Q340.6 -8.4 340.1 -8.4Q339.5 -8.4 339.1 -8.3Q338.7 -8.1 338.4 -7.8Q338.2 -7.5 338.2 -7.0V-7.0Q338.2 -6.7 338.3 -6.4Q338.5 -6.1 338.9 -5.9Q339.3 -5.7 339.9 -5.6L340.9 -5.4Q341.9 -5.2 342.5 -4.8Q343.1 -4.5 343.4 -4.0Q343.7 -3.4 343.7 -2.7V-2.7Q343.7 -1.8 343.3 -1.2Q342.8 -0.5 342.0 -0.1Q341.2 0.2 340.1 0.2Z M350.9 0.2Q349.8 0.2 349.0 -0.1Q348.2 -0.5 347.7 -1.1Q347.3 -1.7 347.2 -2.5L347.2 -2.6H348.7L348.7 -2.5Q348.7 -2.1 349.0 -1.7Q349.3 -1.4 349.8 -1.3Q350.3 -1.1 350.9 -1.1Q351.5 -1.1 352.0 -1.3Q352.5 -1.4 352.7 -1.8Q353.0 -2.1 353.0 -2.6V-2.6Q353.0 -3.1 352.6 -3.5Q352.2 -3.8 351.2 -4.0L350.2 -4.2Q349.2 -4.4 348.6 -4.8Q348.0 -5.2 347.7 -5.7Q347.4 -6.2 347.4 -6.9V-7.0Q347.4 -7.8 347.9 -8.4Q348.3 -9.0 349.1 -9.4Q349.9 -9.7 350.9 -9.7Q351.9 -9.7 352.6 -9.4Q353.4 -9.0 353.8 -8.5Q354.3 -7.9 354.3 -7.1L354.3 -7.0H352.9L352.9 -7.1Q352.8 -7.5 352.5 -7.8Q352.3 -8.1 351.9 -8.3Q351.4 -8.4 350.9 -8.4Q350.3 -8.4 349.9 -8.3Q349.4 -8.1 349.2 -7.8Q348.9 -7.5 348.9 -7.0V-7.0Q348.9 -6.7 349.1 -6.4Q349.3 -6.1 349.7 -5.9Q350.0 -5.7 350.7 -5.6L351.7 -5.4Q352.7 -5.2 353.3 -4.8Q353.9 -4.5 354.2 -4.0Q354.5 -3.4 354.5 -2.7V-2.7Q354.5 -1.8 354.1 -1.2Q353.6 -0.5 352.8 -0.1Q352.0 0.2 350.9 0.2Z M358.4 0.0V-9.5H359.9V0.0Z M367.5 0.2Q366.4 0.2 365.6 -0.1Q364.8 -0.5 364.4 -1.1Q363.9 -1.7 363.8 -2.5L363.8 -2.6H365.3L365.3 -2.5Q365.4 -2.1 365.7 -1.7Q365.9 -1.4 366.4 -1.3Q366.9 -1.1 367.6 -1.1Q368.2 -1.1 368.6 -1.3Q369.1 -1.4 369.4 -1.8Q369.6 -2.1 369.6 -2.6V-2.6Q369.6 -3.1 369.2 -3.5Q368.8 -3.8 367.9 -4.0L366.8 -4.2Q365.9 -4.4 365.2 -4.8Q364.6 -5.2 364.3 -5.7Q364.0 -6.2 364.0 -6.9V-7.0Q364.1 -7.8 364.5 -8.4Q364.9 -9.0 365.7 -9.4Q366.5 -9.7 367.5 -9.7Q368.5 -9.7 369.3 -9.4Q370.0 -9.0 370.5 -8.5Q370.9 -7.9 371.0 -7.1L371.0 -7.0H369.5L369.5 -7.1Q369.4 -7.5 369.2 -7.8Q368.9 -8.1 368.5 -8.3Q368.1 -8.4 367.5 -8.4Q366.9 -8.4 366.5 -8.3Q366.1 -8.1 365.8 -7.8Q365.6 -7.5 365.6 -7.0V-7.0Q365.6 -6.7 365.7 -6.4Q365.9 -6.1 366.3 -5.9Q366.7 -5.7 367.3 -5.6L368.3 -5.4Q369.3 -5.2 369.9 -4.8Q370.6 -4.5 370.9 -4.0Q371.1 -3.4 371.1 -2.7V-2.7Q371.1 -1.8 370.7 -1.2Q370.3 -0.5 369.4 -0.1Q368.6 0.2 367.5 0.2Z M377.5 0.0V-8.2H374.5V-9.5H381.9V-8.2H379.0V0.0Z M385.0 0.0 388.4 -9.5H389.6V-7.8H389.2L386.6 0.0ZM386.6 -2.6 387.1 -3.8H391.4L391.8 -2.6ZM391.9 0.0 389.3 -7.8V-9.5H390.1L393.5 0.0Z M397.1 0.0V-9.5H398.5L403.7 -2.1L402.7 -2.6H403.4V-9.5H404.9V0.0H403.5L398.3 -7.4L399.3 -6.9H398.6V0.0Z M411.6 0.0V-8.2H408.7V-9.5H416.1V-8.2H413.1V0.0Z"/></g>
  </g>
</svg>